<?xml version="1.0" encoding="UTF-8" standalone="no"?>
<svg
   xmlns:dc="http://purl.org/dc/elements/1.1/"
   xmlns:cc="http://creativecommons.org/ns#"
   xmlns:rdf="http://www.w3.org/1999/02/22-rdf-syntax-ns#"
   xmlns:svg="http://www.w3.org/2000/svg"
   xmlns="http://www.w3.org/2000/svg"
   xmlns:sodipodi="http://sodipodi.sourceforge.net/DTD/sodipodi-0.dtd"
   xmlns:inkscape="http://www.inkscape.org/namespaces/inkscape"
   version="1.1"
   viewBox="0 0 581.34375 295.5"
   stroke-miterlimit="10"
   id="svg2"
   inkscape:version="0.48.4 r9939"
   width="100%"
   height="100%"
   sodipodi:docname="Sirius - High-Level Architecture Overview.svg"
   style="fill:none;stroke:none">
  <metadata
     id="metadata61">
    <rdf:RDF>
      <cc:Work
         rdf:about="">
        <dc:format>image/svg+xml</dc:format>
        <dc:type
           rdf:resource="http://purl.org/dc/dcmitype/StillImage" />
      </cc:Work>
    </rdf:RDF>
  </metadata>
  <defs
     id="defs59" />
  <sodipodi:namedview
     pagecolor="#ffffff"
     bordercolor="#666666"
     borderopacity="1"
     objecttolerance="10"
     gridtolerance="10"
     guidetolerance="10"
     inkscape:pageopacity="0"
     inkscape:pageshadow="2"
     inkscape:window-width="640"
     inkscape:window-height="480"
     id="namedview57"
     showgrid="false"
     fit-margin-top="0"
     fit-margin-left="0"
     fit-margin-right="0"
     fit-margin-bottom="0"
     inkscape:zoom="0.32777778"
     inkscape:cx="434.8125"
     inkscape:cy="-133.52372"
     inkscape:window-x="2743"
     inkscape:window-y="168"
     inkscape:window-maximized="0"
     inkscape:current-layer="svg2" />
  <clipPath
     id="p.0">
    <path
       d="M 0,0 960,0 960,720 0,720 0,0 z"
       clip-rule="nonzero"
       id="path5"
       inkscape:connector-curvature="0" />
  </clipPath>
  <path
     style="fill:#cfe2f3;fill-rule:nonzero"
     inkscape:connector-curvature="0"
     id="path11"
     d="m 0.993734,235.51313 0,0 c 0,-6.5174 5.28338,-11.8008 11.80076,-11.8008 l 555.737056,0 c 3.12976,0 6.13135,1.2433 8.34442,3.4564 2.21307,2.213 3.45636,5.2146 3.45636,8.3444 l 0,47.2016 c 0,6.5174 -5.28339,11.8008 -11.80078,11.8008 l -555.737056,0 c -6.51738,0 -11.80076,-5.2834 -11.80076,-11.8008 z" />
  <path
     style="stroke:#000000;stroke-width:2;stroke-linecap:butt;stroke-linejoin:round"
     inkscape:connector-curvature="0"
     id="path13"
     d="m 0.993734,235.51313 0,0 c 0,-6.5174 5.28338,-11.8008 11.80076,-11.8008 l 555.737056,0 c 3.12976,0 6.13135,1.2433 8.34442,3.4564 2.21307,2.213 3.45636,5.2146 3.45636,8.3444 l 0,47.2016 c 0,6.5174 -5.28339,11.8008 -11.80078,11.8008 l -555.737056,0 c -6.51738,0 -11.80076,-5.2834 -11.80076,-11.8008 z" />
  <path
     style="fill:#000000;fill-rule:nonzero"
     inkscape:connector-curvature="0"
     id="path15"
     d="m 14.950064,266.03393 0,-13.5938 9.84375,0 0,1.5938 -8.04688,0 0,4.1718 7.53125,0 0,1.5938 -7.53125,0 0,4.625 8.35938,0 0,1.6094 -10.15625,0 z m 18.63107,-3.6094 1.64063,0.2187 q -0.26563,1.6875 -1.375,2.6563 -1.10938,0.9531 -2.73438,0.9531 -2.01562,0 -3.25,-1.3125 -1.21875,-1.3281 -1.21875,-3.7969 0,-1.5937 0.51563,-2.7812 0.53125,-1.2031 1.60937,-1.7969 1.09375,-0.6094 2.35938,-0.6094 1.60937,0 2.625,0.8125 1.01562,0.8125 1.3125,2.3125 l -1.625,0.25 q -0.23438,-1 -0.82813,-1.5 -0.59375,-0.5 -1.42187,-0.5 -1.26563,0 -2.0625,0.9063 -0.78125,0.9062 -0.78125,2.8594 0,1.9843 0.76562,2.8906 0.76563,0.8906 1.98438,0.8906 0.98437,0 1.64062,-0.5937 0.65625,-0.6094 0.84375,-1.8594 z m 2.85938,3.6094 0,-13.5938 1.67187,0 0,13.5938 -1.67187,0 z m 4.19169,-11.6875 0,-1.9063 1.67188,0 0,1.9063 -1.67188,0 z m 0,11.6875 0,-9.8594 1.67188,0 0,9.8594 -1.67188,0 z m 4.1292,3.7813 0,-13.6407 1.53125,0 0,1.2813 q 0.53125,-0.75 1.20312,-1.125 0.6875,-0.375 1.64063,-0.375 1.26562,0 2.23437,0.6562 0.96875,0.6406 1.45313,1.8281 0.5,1.1875 0.5,2.5938 0,1.5156 -0.54688,2.7344 -0.54687,1.2031 -1.57812,1.8437 -1.03125,0.6406 -2.17188,0.6406 -0.84375,0 -1.51562,-0.3437 -0.65625,-0.3594 -1.07813,-0.8906 l 0,4.7969 -1.67187,0 z m 1.51562,-8.6563 q 0,1.9062 0.76563,2.8125 0.78125,0.9062 1.875,0.9062 1.10937,0 1.89062,-0.9375 0.79688,-0.9375 0.79688,-2.9218 0,-1.875 -0.78125,-2.8125 -0.76563,-0.9375 -1.84375,-0.9375 -1.0625,0 -1.89063,1 -0.8125,1 -0.8125,2.8906 z m 8.18822,1.9375 1.656246,-0.2656 q 0.14063,1 0.76563,1.5312 0.64062,0.5156 1.78125,0.5156 1.15625,0 1.70312,-0.4687 0.5625,-0.4688 0.5625,-1.0938 0,-0.5625 -0.48437,-0.8906 -0.34375,-0.2187 -1.70313,-0.5625 -1.84375,-0.4687 -2.5625,-0.7969 -0.70312,-0.3437 -1.07812,-0.9375 -0.359376,-0.6093 -0.359376,-1.3281 0,-0.6562 0.296876,-1.2187 0.3125,-0.5625 0.82812,-0.9375 0.39063,-0.2813 1.0625,-0.4844 0.67188,-0.2031 1.4375,-0.2031 1.17188,0 2.04688,0.3437 0.875,0.3281 1.28125,0.9063 0.42187,0.5625 0.57812,1.5156 l -1.625,0.2187 q -0.10937,-0.75 -0.65625,-1.1718 -0.53125,-0.4375 -1.5,-0.4375 -1.15625,0 -1.64062,0.3906 -0.48438,0.375 -0.48438,0.875 0,0.3281 0.20313,0.5937 0.20312,0.2657 0.64062,0.4375 0.25,0.094 1.46875,0.4375 1.76563,0.4688 2.46875,0.7657 0.70313,0.2968 1.09375,0.875 0.40625,0.5781 0.40625,1.4375 0,0.8281 -0.48437,1.5781 -0.48438,0.7344 -1.40625,1.1406 -0.92188,0.3906 -2.07813,0.3906 -1.92187,0 -2.9375,-0.7968 -0.999996,-0.7969 -1.281246,-2.3594 z m 16.749996,-0.2344 1.71875,0.2188 q -0.40625,1.5 -1.51562,2.3437 -1.09375,0.8281 -2.8125,0.8281 -2.15625,0 -3.42188,-1.3281 -1.26562,-1.3281 -1.26562,-3.7344 0,-2.4843 1.26562,-3.8593 1.28125,-1.375 3.32813,-1.375 1.98437,0 3.23437,1.3437 1.25,1.3438 1.25,3.7969 0,0.1406 -0.0156,0.4375 l -7.34375,0 q 0.0937,1.625 0.92187,2.4844 0.82813,0.8593 2.0625,0.8593 0.90625,0 1.54688,-0.4687 0.65625,-0.4844 1.04687,-1.5469 z m -5.48437,-2.7031 5.5,0 q -0.10938,-1.2344 -0.625,-1.8594 -0.79688,-0.9687 -2.07813,-0.9687 -1.14062,0 -1.9375,0.7812 -0.78125,0.7656 -0.85937,2.0469 z m 14.51214,5.875 0,-13.5938 5.125,0 q 1.35938,0 2.07813,0.125 1,0.1719 1.67187,0.6407 0.67188,0.4687 1.07813,1.3125 0.42187,0.8437 0.42187,1.8437 0,1.7344 -1.10937,2.9375 -1.09375,1.2031 -3.98438,1.2031 l -3.48437,0 0,5.5313 -1.79688,0 z m 1.79688,-7.1406 3.51562,0 q 1.75,0 2.46875,-0.6407 0.73438,-0.6562 0.73438,-1.8281 0,-0.8594 -0.4375,-1.4687 -0.42188,-0.6094 -1.125,-0.7969 -0.45313,-0.125 -1.67188,-0.125 l -3.48437,0 0,4.8594 z m 10.3967,7.1406 0,-13.5938 1.67187,0 0,13.5938 -1.67187,0 z m 10.61357,-1.2188 q -0.9375,0.7969 -1.79688,1.125 -0.85937,0.3125 -1.84375,0.3125 -1.60937,0 -2.48437,-0.7812 -0.875,-0.7969 -0.875,-2.0313 0,-0.7343 0.32812,-1.3281 0.32813,-0.5937 0.85938,-0.9531 0.53125,-0.3594 1.20312,-0.5469 0.5,-0.1406 1.48438,-0.25 2.03125,-0.25 2.98437,-0.5781 0,-0.3438 0,-0.4375 0,-1.0156 -0.46875,-1.4375 -0.64062,-0.5625 -1.90625,-0.5625 -1.17187,0 -1.73437,0.4062 -0.5625,0.4063 -0.82813,1.4688 l -1.64062,-0.2344 q 0.23437,-1.0469 0.73437,-1.6875 0.51563,-0.6406 1.46875,-0.9844 0.96875,-0.3593 2.25,-0.3593 1.26563,0 2.04688,0.2968 0.78125,0.2969 1.15625,0.75 0.375,0.4532 0.51562,1.1407 0.0937,0.4218 0.0937,1.5312 l 0,2.2344 q 0,2.3281 0.0937,2.9531 0.10938,0.6094 0.4375,1.1719 l -1.75,0 q -0.26562,-0.5156 -0.32812,-1.2188 z m -0.14063,-3.7187 q -0.90625,0.3594 -2.73437,0.625 -1.03125,0.1406 -1.45313,0.3281 -0.42187,0.1875 -0.65625,0.5469 -0.23437,0.3594 -0.23437,0.7969 0,0.6718 0.5,1.125 0.51562,0.4375 1.48437,0.4375 0.96875,0 1.71875,-0.4219 0.75,-0.4375 1.10938,-1.1563 0.26562,-0.5781 0.26562,-1.6718 l 0,-0.6094 z m 7.73509,3.4375 0.23438,1.4844 q -0.70313,0.1406 -1.26563,0.1406 -0.90625,0 -1.40625,-0.2813 -0.5,-0.2968 -0.70312,-0.75 -0.20313,-0.4687 -0.20313,-1.9843 l 0,-5.6563 -1.23437,0 0,-1.3125 1.23437,0 0,-2.4375 1.65625,-1 0,3.4375 1.6875,0 0,1.3125 -1.6875,0 0,5.75 q 0,0.7188 0.0781,0.9219 0.0937,0.2031 0.29687,0.3281 0.20313,0.125 0.57813,0.125 0.26562,0 0.73437,-0.078 z m 1.93331,1.5 0,-8.5469 -1.48438,0 0,-1.3125 1.48438,0 0,-1.0469 q 0,-0.9843 0.17187,-1.4687 0.23438,-0.6563 0.84375,-1.0469 0.60938,-0.4062 1.70313,-0.4062 0.70312,0 1.5625,0.1562 l -0.25,1.4688 q -0.51563,-0.094 -0.98438,-0.094 -0.76562,0 -1.07812,0.3281 -0.3125,0.3125 -0.3125,1.2031 l 0,0.9063 1.92187,0 0,1.3125 -1.92187,0 0,8.5468 -1.65625,0 z m 4.15205,-4.9219 q 0,-2.7344 1.53125,-4.0625 1.26563,-1.0937 3.09375,-1.0937 2.03125,0 3.3125,1.3437 1.29688,1.3281 1.29688,3.6719 0,1.9062 -0.57813,3 -0.5625,1.0781 -1.65625,1.6875 -1.07812,0.5937 -2.375,0.5937 -2.0625,0 -3.34375,-1.3281 -1.28125,-1.3281 -1.28125,-3.8125 z m 1.71875,0 q 0,1.8906 0.82813,2.8281 0.82812,0.9375 2.07812,0.9375 1.25,0 2.0625,-0.9375 0.82813,-0.9531 0.82813,-2.8906 0,-1.8281 -0.82813,-2.7656 -0.82812,-0.9375 -2.0625,-0.9375 -1.25,0 -2.07812,0.9375 -0.82813,0.9375 -0.82813,2.8281 z m 9.26634,4.9219 0,-9.8594 1.5,0 0,1.5 q 0.57813,-1.0469 1.0625,-1.375 0.48438,-0.3437 1.07813,-0.3437 0.84375,0 1.71875,0.5468 l -0.57813,1.5469 q -0.60937,-0.3594 -1.23437,-0.3594 -0.54688,0 -0.98438,0.3282 -0.42187,0.3281 -0.60937,0.9062 -0.28125,0.8906 -0.28125,1.9531 l 0,5.1563 -1.67188,0 z m 6.22831,0 0,-9.8594 1.5,0 0,1.3906 q 0.45312,-0.7187 1.21875,-1.1562 0.78125,-0.4531 1.76564,-0.4531 1.09375,0 1.79687,0.4531 0.70313,0.4531 0.98438,1.2812 1.17187,-1.7343 3.04687,-1.7343 1.46875,0 2.25,0.8125 0.79688,0.8125 0.79688,2.5 l 0,6.7656 -1.67188,0 0,-6.2031 q 0,-1 -0.15625,-1.4375 -0.15625,-0.4532 -0.59375,-0.7188 -0.42187,-0.2656 -1,-0.2656 -1.03125,0 -1.71875,0.6875 -0.6875,0.6875 -0.6875,2.2187 l 0,5.7188 -1.67187,0 0,-6.4063 q 0,-1.1093 -0.40625,-1.6562 -0.40625,-0.5625 -1.34375,-0.5625 -0.70314,0 -1.31252,0.375 -0.59375,0.3594 -0.85937,1.0781 -0.26563,0.7188 -0.26563,2.0625 l 0,5.1094 -1.67187,0 z" />
  <path
     style="fill:#cfe2f3;fill-rule:nonzero"
     inkscape:connector-curvature="0"
     id="path17"
     d="m 0.993734,21.825629 0,0 c 0,-11.504 9.32583,-20.82982 20.82981,-20.82982 l 228.828546,0 c 5.52441,0 10.82257,2.19457 14.72891,6.10091 3.90634,3.90634 6.10092,9.2045 6.10092,14.72891 l 0,83.316741 c 0,11.504 -9.32583,20.82983 -20.82983,20.82983 l -228.828546,0 c -11.50398,0 -20.82981,-9.32583 -20.82981,-20.82983 z" />
  <path
     style="stroke:#000000;stroke-width:2;stroke-linecap:butt;stroke-linejoin:round"
     inkscape:connector-curvature="0"
     id="path19"
     d="m 0.993734,21.825629 0,0 c 0,-11.504 9.32583,-20.82982 20.82981,-20.82982 l 228.828546,0 c 5.52441,0 10.82257,2.19457 14.72891,6.10091 3.90634,3.90634 6.10092,9.2045 6.10092,14.72891 l 0,83.316741 c 0,11.504 -9.32583,20.82983 -20.82983,20.82983 l -228.828546,0 c -11.50398,0 -20.82981,-9.32583 -20.82981,-20.82983 z" />
  <path
     style="fill:#000000;fill-rule:nonzero"
     inkscape:connector-curvature="0"
     id="path21"
     d="m 76.44618,29.641629 1.6875,-0.14063 q 0.125,1.01563 0.5625,1.67188 0.4375,0.65625 1.35937,1.0625 0.9375,0.40625 2.09375,0.40625 1.03125,0 1.8125,-0.3125 0.79688,-0.3125 1.1875,-0.84375 0.39063,-0.53125 0.39063,-1.15625 0,-0.64063 -0.375,-1.10938 -0.375,-0.48437 -1.23438,-0.8125 -0.54687,-0.21875 -2.42187,-0.65625 -1.875,-0.45312 -2.625,-0.85937 -0.96875,-0.51563 -1.45313,-1.26563 -0.46875,-0.75 -0.46875,-1.6875 0,-1.03125 0.57813,-1.92187 0.59375,-0.90625 1.70312,-1.35938 1.125,-0.46875 2.5,-0.46875 1.51563,0 2.67188,0.48438 1.15625,0.48437 1.76562,1.4375 0.625,0.9375 0.67188,2.14062 l -1.71875,0.125 q -0.14063,-1.28125 -0.95313,-1.9375 -0.79687,-0.67187 -2.35937,-0.67187 -1.625,0 -2.375,0.60937 -0.75,0.59375 -0.75,1.4375 0,0.73438 0.53125,1.20313 0.51562,0.46875 2.70312,0.96875 2.20313,0.5 3.01563,0.875 1.1875,0.54687 1.75,1.39062 0.57812,0.82813 0.57812,1.92188 0,1.09375 -0.625,2.0625 -0.625,0.95312 -1.79687,1.48437 -1.15625,0.53125 -2.60938,0.53125 -1.84375,0 -3.09375,-0.53125 -1.25,-0.54687 -1.96875,-1.625 -0.70312,-1.07812 -0.73437,-2.45312 z m 12.84982,-7.3125 0,-1.90625 1.67188,0 0,1.90625 -1.67188,0 z m 0,11.6875 0,-9.85938 1.67188,0 0,9.85938 -1.67188,0 z m 4.11357,0 0,-9.85938 1.5,0 0,1.5 q 0.57813,-1.04687 1.0625,-1.375 0.48438,-0.34375 1.07813,-0.34375 0.84375,0 1.71875,0.54688 l -0.57813,1.54687 q -0.60937,-0.35937 -1.23437,-0.35937 -0.54688,0 -0.98438,0.32812 -0.42187,0.32813 -0.60937,0.90625 -0.28125,0.89063 -0.28125,1.95313 l 0,5.15625 -1.67188,0 z m 6.24393,-11.6875 0,-1.90625 1.67188,0 0,1.90625 -1.67188,0 z m 0,11.6875 0,-9.85938 1.67188,0 0,9.85938 -1.67188,0 z m 10.58232,0 0,-1.45313 q -1.14062,1.67188 -3.125,1.67188 -0.85937,0 -1.625,-0.32813 -0.75,-0.34375 -1.125,-0.84375 -0.35937,-0.5 -0.51562,-1.23437 -0.0937,-0.5 -0.0937,-1.5625 l 0,-6.10938 1.67187,0 0,5.46875 q 0,1.3125 0.0937,1.76563 0.15625,0.65625 0.67188,1.03125 0.51562,0.375 1.26562,0.375 0.75,0 1.40625,-0.375 0.65625,-0.39063 0.92188,-1.04688 0.28125,-0.67187 0.28125,-1.9375 l 0,-5.28125 1.67187,0 0,9.85938 -1.5,0 z m 3.25072,-2.9375 1.65625,-0.26563 q 0.14062,1 0.76562,1.53125 0.64063,0.51563 1.78125,0.51563 1.15625,0 1.70313,-0.46875 0.5625,-0.46875 0.5625,-1.09375 0,-0.5625 -0.48438,-0.89063 -0.34375,-0.21875 -1.70312,-0.5625 -1.84375,-0.46875 -2.5625,-0.79687 -0.70313,-0.34375 -1.07813,-0.9375 -0.35937,-0.60938 -0.35937,-1.32813 0,-0.65625 0.29687,-1.21875 0.3125,-0.5625 0.82813,-0.9375 0.39062,-0.28125 1.0625,-0.48437 0.67187,-0.20313 1.4375,-0.20313 1.17187,0 2.04687,0.34375 0.875,0.32813 1.28125,0.90625 0.42188,0.5625 0.57813,1.51563 l -1.625,0.21875 q -0.10938,-0.75 -0.65625,-1.17188 -0.53125,-0.4375 -1.5,-0.4375 -1.15625,0 -1.64063,0.39063 -0.48437,0.375 -0.48437,0.875 0,0.32812 0.20312,0.59375 0.20313,0.26562 0.64063,0.4375 0.25,0.0937 1.46875,0.4375 1.76562,0.46875 2.46875,0.76562 0.70312,0.29688 1.09375,0.875 0.40625,0.57813 0.40625,1.4375 0,0.82813 -0.48438,1.57813 -0.48437,0.73437 -1.40625,1.14062 -0.92187,0.39063 -2.07812,0.39063 -1.92188,0 -2.9375,-0.79688 -1,-0.79687 -1.28125,-2.35937 z m 15.4333,2.9375 0,-13.59375 6.03125,0 q 1.8125,0 2.74999,0.35937 0.95312,0.35938 1.51562,1.29688 0.5625,0.92187 0.5625,2.04687 0,1.45313 -0.9375,2.45313 -0.92187,0.98437 -2.89061,1.25 0.71875,0.34375 1.09375,0.67187 0.78124,0.73438 1.48436,1.8125 l 2.375,3.70313 -2.26562,0 -1.79686,-2.82813 q -0.79688,-1.21875 -1.3125,-1.875 -0.5,-0.65625 -0.90625,-0.90625 -0.40625,-0.26562 -0.8125,-0.35937 -0.3125,-0.0781 -1.01563,-0.0781 l -2.07812,0 0,6.04688 -1.79688,0 z m 1.79688,-7.59375 3.85937,0 q 1.23438,0 1.92188,-0.25 0.70312,-0.26563 1.0625,-0.82813 0.37498,-0.5625 0.37498,-1.21875 0,-0.96875 -0.70311,-1.57812 -0.70312,-0.625 -2.21875,-0.625 l -4.29687,0 0,4.5 z m 17.87919,7.59375 0,-1.45313 q -1.14062,1.67188 -3.125,1.67188 -0.85937,0 -1.625,-0.32813 -0.75,-0.34375 -1.125,-0.84375 -0.35937,-0.5 -0.51562,-1.23437 -0.0937,-0.5 -0.0937,-1.5625 l 0,-6.10938 1.67187,0 0,5.46875 q 0,1.3125 0.0937,1.76563 0.15625,0.65625 0.67188,1.03125 0.51562,0.375 1.26562,0.375 0.75,0 1.40625,-0.375 0.65625,-0.39063 0.92188,-1.04688 0.28125,-0.67187 0.28125,-1.9375 l 0,-5.28125 1.67187,0 0,9.85938 -1.5,0 z m 3.92258,0 0,-9.85938 1.5,0 0,1.40625 q 1.09375,-1.625 3.14063,-1.625 0.89062,0 1.64062,0.32813 0.75,0.3125 1.10938,0.84375 0.375,0.51562 0.53125,1.21875 0.0937,0.46875 0.0937,1.625 l 0,6.0625 -1.67188,0 0,-6 q 0,-1.01563 -0.20312,-1.51563 -0.1875,-0.51562 -0.6875,-0.8125 -0.5,-0.29687 -1.17188,-0.29687 -1.0625,0 -1.84375,0.67187 -0.76562,0.67188 -0.76562,2.57813 l 0,5.375 -1.67188,0 z m 14.03198,-1.5 0.23438,1.48437 q -0.70313,0.14063 -1.26563,0.14063 -0.90625,0 -1.40625,-0.28125 -0.5,-0.29688 -0.70312,-0.75 -0.20313,-0.46875 -0.20313,-1.98438 l 0,-5.65625 -1.23437,0 0,-1.3125 1.23437,0 0,-2.4375 1.65625,-1 0,3.4375 1.6875,0 0,1.3125 -1.6875,0 0,5.75 q 0,0.71875 0.0781,0.92188 0.0937,0.20312 0.29687,0.32812 0.20313,0.125 0.57813,0.125 0.26562,0 0.73437,-0.0781 z m 1.54267,-10.1875 0,-1.90625 1.67187,0 0,1.90625 -1.67187,0 z m 0,11.6875 0,-9.85938 1.67187,0 0,9.85938 -1.67187,0 z m 4.12921,0 0,-9.85938 1.5,0 0,1.39063 q 0.45312,-0.71875 1.21875,-1.15625 0.78125,-0.45313 1.76562,-0.45313 1.09375,0 1.79688,0.45313 0.70312,0.45312 0.98437,1.28125 1.17188,-1.73438 3.04688,-1.73438 1.46875,0 2.25,0.8125 0.79687,0.8125 0.79687,2.5 l 0,6.76563 -1.67187,0 0,-6.20313 q 0,-1 -0.15625,-1.4375 -0.15625,-0.45312 -0.59375,-0.71875 -0.42188,-0.26562 -1,-0.26562 -1.03125,0 -1.71875,0.6875 -0.6875,0.6875 -0.6875,2.21875 l 0,5.71875 -1.67188,0 0,-6.40625 q 0,-1.10938 -0.40625,-1.65625 -0.40625,-0.5625 -1.34375,-0.5625 -0.70312,0 -1.3125,0.375 -0.59375,0.35937 -0.85937,1.07812 -0.26563,0.71875 -0.26563,2.0625 l 0,5.10938 -1.67187,0 z m 22.2908,-3.17188 1.71875,0.21875 q -0.40625,1.5 -1.51562,2.34375 -1.09375,0.82813 -2.8125,0.82813 -2.15625,0 -3.42188,-1.32813 -1.26562,-1.32812 -1.26562,-3.73437 0,-2.48438 1.26562,-3.85938 1.28125,-1.375 3.32813,-1.375 1.98437,0 3.23437,1.34375 1.25,1.34375 1.25,3.79688 0,0.14062 -0.0156,0.4375 l -7.34375,0 q 0.0937,1.625 0.92187,2.48437 0.82813,0.85938 2.0625,0.85938 0.90625,0 1.54688,-0.46875 0.65625,-0.48438 1.04687,-1.54688 z m -5.48437,-2.70312 5.5,0 q -0.10938,-1.23438 -0.625,-1.85938 -0.79688,-0.96875 -2.07813,-0.96875 -1.14062,0 -1.9375,0.78125 -0.78125,0.76563 -0.85937,2.04688 z" />
  <path
     style="fill:#cfe2f3;fill-rule:nonzero"
     inkscape:connector-curvature="0"
     id="path23"
     d="m 309.84676,21.825629 0,0 c 0,-11.504 9.32581,-20.82982 20.8298,-20.82982 l 228.82855,0 c 5.52442,0 10.82257,2.19457 14.72889,6.10091 3.90637,3.90634 6.10095,9.2045 6.10095,14.72891 l 0,83.316741 c 0,11.504 -9.32587,20.82983 -20.82984,20.82983 l -228.82855,0 c -11.504,0 -20.8298,-9.32583 -20.8298,-20.82983 z" />
  <path
     style="stroke:#000000;stroke-width:2;stroke-linecap:butt;stroke-linejoin:round"
     inkscape:connector-curvature="0"
     id="path25"
     d="m 309.84676,21.825629 0,0 c 0,-11.504 9.32581,-20.82982 20.8298,-20.82982 l 228.82855,0 c 5.52442,0 10.82257,2.19457 14.72889,6.10091 3.90637,3.90634 6.10095,9.2045 6.10095,14.72891 l 0,83.316741 c 0,11.504 -9.32587,20.82983 -20.82984,20.82983 l -228.82855,0 c -11.504,0 -20.8298,-9.32583 -20.8298,-20.82983 z" />
  <path
     style="fill:#000000;fill-rule:nonzero"
     inkscape:connector-curvature="0"
     id="path27"
     d="m 389.43946,66.028989 1.6875,-0.14063 q 0.125,1.01563 0.5625,1.67188 0.4375,0.65625 1.35938,1.0625 0.9375,0.40625 2.09375,0.40625 1.03125,0 1.8125,-0.3125 0.79687,-0.3125 1.1875,-0.84375 0.39062,-0.53125 0.39062,-1.15625 0,-0.64063 -0.375,-1.10938 -0.375,-0.48437 -1.23437,-0.8125 -0.54688,-0.21875 -2.42188,-0.65625 -1.875,-0.45312 -2.625,-0.85937 -0.96875,-0.51563 -1.45312,-1.26563 -0.46875,-0.75 -0.46875,-1.6875 0,-1.03125 0.57812,-1.92187 0.59375,-0.90625 1.70313,-1.35938 1.125,-0.46875 2.5,-0.46875 1.51562,0 2.67187,0.48438 1.15625,0.48437 1.76563,1.4375 0.625,0.9375 0.67187,2.14062 l -1.71875,0.125 q -0.14062,-1.28125 -0.95312,-1.9375 -0.79688,-0.67187 -2.35938,-0.67187 -1.625,0 -2.375,0.60937 -0.75,0.59375 -0.75,1.4375 0,0.73438 0.53125,1.20313 0.51563,0.46875 2.70313,0.96875 2.20312,0.5 3.01562,0.875 1.1875,0.54687 1.75,1.39062 0.57813,0.82813 0.57813,1.92188 0,1.09375 -0.625,2.0625 -0.625,0.95312 -1.79688,1.48437 -1.15625,0.53125 -2.60937,0.53125 -1.84375,0 -3.09375,-0.53125 -1.25,-0.54687 -1.96875,-1.625 -0.70313,-1.07812 -0.73438,-2.45312 z m 12.84985,-7.3125 0,-1.90625 1.67188,0 0,1.90625 -1.67188,0 z m 0,11.6875 0,-9.85938 1.67188,0 0,9.85938 -1.67188,0 z m 4.11353,0 0,-9.85938 1.5,0 0,1.5 q 0.57812,-1.04687 1.0625,-1.375 0.48437,-0.34375 1.07812,-0.34375 0.84375,0 1.71875,0.54688 l -0.57812,1.54687 q -0.60938,-0.35937 -1.23438,-0.35937 -0.54687,0 -0.98437,0.32812 -0.42188,0.32813 -0.60938,0.90625 -0.28125,0.89063 -0.28125,1.95313 l 0,5.15625 -1.67187,0 z m 6.24396,-11.6875 0,-1.90625 1.67187,0 0,1.90625 -1.67187,0 z m 0,11.6875 0,-9.85938 1.67187,0 0,9.85938 -1.67187,0 z m 10.58233,0 0,-1.45313 q -1.14062,1.67188 -3.125,1.67188 -0.85937,0 -1.625,-0.32813 -0.75,-0.34375 -1.125,-0.84375 -0.35937,-0.5 -0.51562,-1.23437 -0.0937,-0.5 -0.0937,-1.5625 l 0,-6.10938 1.67187,0 0,5.46875 q 0,1.3125 0.0937,1.76563 0.15625,0.65625 0.67188,1.03125 0.51562,0.375 1.26562,0.375 0.75,0 1.40625,-0.375 0.65625,-0.39063 0.92188,-1.04688 0.28125,-0.67187 0.28125,-1.9375 l 0,-5.28125 1.67187,0 0,9.85938 -1.5,0 z m 3.25067,-2.9375 1.65625,-0.26563 q 0.14063,1 0.76563,1.53125 0.64062,0.51563 1.78125,0.51563 1.15625,0 1.70312,-0.46875 0.5625,-0.46875 0.5625,-1.09375 0,-0.5625 -0.48437,-0.89063 -0.34375,-0.21875 -1.70313,-0.5625 -1.84375,-0.46875 -2.5625,-0.79687 -0.70312,-0.34375 -1.07812,-0.9375 -0.35938,-0.60938 -0.35938,-1.32813 0,-0.65625 0.29688,-1.21875 0.3125,-0.5625 0.82812,-0.9375 0.39063,-0.28125 1.0625,-0.48437 0.67188,-0.20313 1.4375,-0.20313 1.17188,0 2.04688,0.34375 0.875,0.32813 1.28125,0.90625 0.42187,0.5625 0.57812,1.51563 l -1.625,0.21875 q -0.10937,-0.75 -0.65625,-1.17188 -0.53125,-0.4375 -1.5,-0.4375 -1.15625,0 -1.64062,0.39063 -0.48438,0.375 -0.48438,0.875 0,0.32812 0.20313,0.59375 0.20312,0.26562 0.64062,0.4375 0.25,0.0937 1.46875,0.4375 1.76563,0.46875 2.46875,0.76562 0.70313,0.29688 1.09375,0.875 0.40625,0.57813 0.40625,1.4375 0,0.82813 -0.48437,1.57813 -0.48438,0.73437 -1.40625,1.14062 -0.92188,0.39063 -2.07813,0.39063 -1.92187,0 -2.9375,-0.79688 -1,-0.79687 -1.28125,-2.35937 z m 18.85517,2.9375 0,-12 -4.46869,0 0,-1.59375 10.76556,0 0,1.59375 -4.5,0 0,12 -1.79687,0 z m 7.09912,-4.92188 q 0,-2.73437 1.53125,-4.0625 1.26562,-1.09375 3.09375,-1.09375 2.03125,0 3.3125,1.34375 1.29687,1.32813 1.29687,3.67188 0,1.90625 -0.57812,3 -0.5625,1.07812 -1.65625,1.6875 -1.07813,0.59375 -2.375,0.59375 -2.0625,0 -3.34375,-1.32813 -1.28125,-1.32812 -1.28125,-3.8125 z m 1.71875,0 q 0,1.89063 0.82812,2.82813 0.82813,0.9375 2.07813,0.9375 1.25,0 2.0625,-0.9375 0.82812,-0.95313 0.82812,-2.89063 0,-1.82812 -0.82812,-2.76562 -0.82813,-0.9375 -2.0625,-0.9375 -1.25,0 -2.07813,0.9375 -0.82812,0.9375 -0.82812,2.82812 z m 8.65698,0 q 0,-2.73437 1.53125,-4.0625 1.26563,-1.09375 3.09375,-1.09375 2.03125,0 3.3125,1.34375 1.29688,1.32813 1.29688,3.67188 0,1.90625 -0.57813,3 -0.5625,1.07812 -1.65625,1.6875 -1.07812,0.59375 -2.375,0.59375 -2.0625,0 -3.34375,-1.32813 -1.28125,-1.32812 -1.28125,-3.8125 z m 1.71875,0 q 0,1.89063 0.82813,2.82813 0.82812,0.9375 2.07812,0.9375 1.25,0 2.0625,-0.9375 0.82813,-0.95313 0.82813,-2.89063 0,-1.82812 -0.82813,-2.76562 -0.82812,-0.9375 -2.0625,-0.9375 -1.25,0 -2.07812,0.9375 -0.82813,0.9375 -0.82813,2.82812 z m 9.25073,4.92188 0,-13.59375 1.67188,0 0,13.59375 -1.67188,0 z m 4.19165,-11.6875 0,-1.90625 1.67188,0 0,1.90625 -1.67188,0 z m 0,11.6875 0,-9.85938 1.67188,0 0,9.85938 -1.67188,0 z m 4.12921,0 0,-9.85938 1.5,0 0,1.40625 q 1.09375,-1.625 3.14063,-1.625 0.89062,0 1.64062,0.32813 0.75,0.3125 1.10938,0.84375 0.375,0.51562 0.53125,1.21875 0.0937,0.46875 0.0937,1.625 l 0,6.0625 -1.67188,0 0,-6 q 0,-1.01563 -0.20312,-1.51563 -0.1875,-0.51562 -0.6875,-0.8125 -0.5,-0.29687 -1.17188,-0.29687 -1.0625,0 -1.84375,0.67187 -0.76562,0.67188 -0.76562,2.57813 l 0,5.375 -1.67188,0 z m 10.07886,0.8125 1.60938,0.250001 q 0.10937,0.75 0.57812,1.09375 0.60938,0.45312 1.6875,0.45312 1.17188,0 1.79688,-0.46875 0.625,-0.45312 0.85937,-1.281251 0.125,-0.51562 0.10938,-2.15625 -1.09375,1.29688 -2.71875,1.29688 -2.03125,0 -3.15625,-1.46875 -1.10938,-1.46875 -1.10938,-3.51563 0,-1.40625 0.51563,-2.59375 0.51562,-1.20312 1.48437,-1.84375 0.96875,-0.65625 2.26563,-0.65625 1.75,0 2.875,1.40625 l 0,-1.1875 1.54687,0 0,8.51563 q 0,2.3125 -0.46875,3.265621 -0.46875,0.96875 -1.48437,1.51563 -1.01563,0.5625 -2.5,0.5625 -1.76563,0 -2.85938,-0.79688 -1.07812,-0.79687 -1.03125,-2.390621 z m 1.375,-5.92188 q 0,1.95313 0.76563,2.84375 0.78125,0.89063 1.9375,0.89063 1.14062,0 1.92187,-0.89063 0.78125,-0.89062 0.78125,-2.78125 0,-1.8125 -0.8125,-2.71875 -0.79687,-0.92187 -1.92187,-0.92187 -1.10938,0 -1.89063,0.90625 -0.78125,0.89062 -0.78125,2.67187 z" />
  <path
     style="fill:#93c47d;fill-rule:nonzero"
     inkscape:connector-curvature="0"
     id="path29"
     d="m 26.182714,59.880309 112.125976,0 0,43.622071 -112.125976,0 z" />
  <path
     style="stroke:#000000;stroke-width:2;stroke-linecap:butt;stroke-linejoin:round"
     inkscape:connector-curvature="0"
     id="path31"
     d="m 26.182714,59.880309 112.125976,0 0,43.622071 -112.125976,0 z" />
  <path
     style="fill:#000000;fill-rule:nonzero"
     inkscape:connector-curvature="0"
     id="path33"
     d="m 38.064104,78.49133 0,-9.312501 4.125,0 q 1.25,0 1.89062,0.26562 0.65625,0.25 1.04688,0.89063 0.39062,0.625 0.39062,1.390621 0,0.98438 -0.65625,1.67188 -0.64062,0.67187 -1.96875,0.85937 0.48438,0.23438 0.73438,0.46875 0.54687,0.48438 1.03125,1.23438 l 1.60937,2.53125 -1.54687,0 -1.23438,-1.9375 q -0.53125,-0.84375 -0.89062,-1.28125 -0.34375,-0.4375 -0.625,-0.60938 -0.26563,-0.1875 -0.54688,-0.26562 -0.21875,-0.0312 -0.6875,-0.0312 l -1.4375,0 0,4.125 -1.23437,0 z m 1.23437,-5.20313 2.65625,0 q 0.84375,0 1.3125,-0.17187 0.48438,-0.17188 0.71875,-0.54688 0.25,-0.39062 0.25,-0.84375 0,-0.656251 -0.48437,-1.078121 -0.46875,-0.4375 -1.5,-0.4375 l -2.95313,0 0,3.078121 z m 12.84391,3.03125 1.1875,0.14063 q -0.28125,1.04687 -1.04688,1.625 -0.75,0.5625 -1.92187,0.5625 -1.48438,0 -2.35938,-0.90625 -0.85937,-0.92188 -0.85937,-2.5625 0,-1.70313 0.875,-2.64063 0.89062,-0.9375 2.28125,-0.9375 1.35937,0 2.20312,0.92188 0.85938,0.92187 0.85938,2.57812 0,0.10938 0,0.3125 l -5.03125,0 q 0.0625,1.10938 0.625,1.70313 0.5625,0.59375 1.40625,0.59375 0.64062,0 1.07812,-0.32813 0.45313,-0.34375 0.70313,-1.0625 z m -3.75,-1.84375 3.76562,0 q -0.0781,-0.85937 -0.4375,-1.28125 -0.54687,-0.65625 -1.40625,-0.65625 -0.79687,0 -1.32812,0.53125 -0.53125,0.51563 -0.59375,1.40625 z m 6.553096,6.59375 0,-9.3125 1.03125,0 0,0.875 q 0.375,-0.51562 0.82812,-0.76562 0.46875,-0.26563 1.14063,-0.26563 0.85937,0 1.51562,0.45313 0.65625,0.4375 0.98438,1.25 0.34375,0.79687 0.34375,1.76562 0,1.03125 -0.375,1.85938 -0.35938,0.82812 -1.07813,1.28125 -0.70312,0.4375 -1.48437,0.4375 -0.5625,0 -1.01563,-0.23438 -0.45312,-0.25 -0.75,-0.625 l 0,3.28125 -1.14062,0 z m 1.03125,-5.90625 q 0,1.29688 0.53125,1.92188 0.53125,0.625 1.26562,0.625 0.76563,0 1.3125,-0.64063 0.54688,-0.65625 0.54688,-2 0,-1.29687 -0.53125,-1.9375 -0.53125,-0.64062 -1.26563,-0.64062 -0.73437,0 -1.29687,0.6875 -0.5625,0.67187 -0.5625,1.98437 z m 6.3656,3.32813 0,-6.73438 1.03125,0 0,1.01563 q 0.39062,-0.71875 0.71875,-0.9375 0.34375,-0.23438 0.73437,-0.23438 0.57813,0 1.17188,0.35938 l -0.39063,1.0625 q -0.42187,-0.25 -0.82812,-0.25 -0.375,0 -0.6875,0.23437 -0.29688,0.21875 -0.42188,0.625 -0.1875,0.60938 -0.1875,1.32813 l 0,3.53125 -1.14062,0 z m 9.06337,-2.17188 1.1875,0.14063 q -0.28125,1.04687 -1.04688,1.625 -0.75,0.5625 -1.92187,0.5625 -1.48438,0 -2.35938,-0.90625 -0.85937,-0.92188 -0.85937,-2.5625 0,-1.70313 0.875,-2.64063 0.89062,-0.9375 2.28125,-0.9375 1.35937,0 2.20312,0.92188 0.85938,0.92187 0.85938,2.57812 0,0.10938 0,0.3125 l -5.03125,0 q 0.0625,1.10938 0.625,1.70313 0.5625,0.59375 1.40625,0.59375 0.64062,0 1.07812,-0.32813 0.45313,-0.34375 0.70313,-1.0625 z m -3.75,-1.84375 3.76562,0 q -0.0781,-0.85937 -0.4375,-1.28125 -0.54687,-0.65625 -1.40625,-0.65625 -0.79687,0 -1.32812,0.53125 -0.53125,0.51563 -0.59375,1.40625 z m 6.09997,2 1.125,-0.17187 q 0.0937,0.67187 0.53125,1.04687 0.4375,0.35938 1.21875,0.35938 0.78125,0 1.15625,-0.3125 0.39063,-0.32813 0.39063,-0.76563 0,-0.39062 -0.34375,-0.60937 -0.23438,-0.15625 -1.17188,-0.39063 -1.25,-0.3125 -1.73437,-0.54687 -0.48438,-0.23438 -0.73438,-0.64063 -0.25,-0.40625 -0.25,-0.90625 0,-0.45312 0.20313,-0.82812 0.20312,-0.39063 0.5625,-0.64063 0.26562,-0.20312 0.71875,-0.32812 0.46875,-0.14063 1,-0.14063 0.78125,0 1.375,0.23438 0.60937,0.21875 0.89062,0.60937 0.29688,0.39063 0.40625,1.04688 l -1.125,0.15625 q -0.0781,-0.53125 -0.4375,-0.8125 -0.35937,-0.29688 -1.03125,-0.29688 -0.78125,0 -1.125,0.26563 -0.34375,0.25 -0.34375,0.60937 0,0.21875 0.14063,0.39063 0.14062,0.1875 0.4375,0.3125 0.17187,0.0625 1.01562,0.28125 1.21875,0.32812 1.6875,0.53125 0.48438,0.20312 0.75,0.60937 0.28125,0.39063 0.28125,0.96875 0,0.57813 -0.34375,1.07813 -0.32812,0.5 -0.95312,0.78125 -0.625,0.28125 -1.42188,0.28125 -1.3125,0 -2,-0.54688 -0.6875,-0.54687 -0.875,-1.625 z m 11.72657,-0.15625 1.1875,0.14063 q -0.28125,1.04687 -1.04688,1.625 -0.75,0.5625 -1.92187,0.5625 -1.48438,0 -2.35938,-0.90625 -0.85937,-0.92188 -0.85937,-2.5625 0,-1.70313 0.875,-2.64063 0.89062,-0.9375 2.28125,-0.9375 1.35937,0 2.20312,0.92188 0.85938,0.92187 0.85938,2.57812 0,0.10938 0,0.3125 l -5.03125,0 q 0.0625,1.10938 0.625,1.70313 0.5625,0.59375 1.40625,0.59375 0.64062,0 1.07812,-0.32813 0.45313,-0.34375 0.70313,-1.0625 z m -3.75,-1.84375 3.76562,0 q -0.0781,-0.85937 -0.4375,-1.28125 -0.54687,-0.65625 -1.40625,-0.65625 -0.79687,0 -1.32812,0.53125 -0.53125,0.51563 -0.59375,1.40625 z m 6.5531,4.01563 0,-6.73438 1.03125,0 0,0.95313 q 0.73437,-1.10938 2.14062,-1.10938 0.60938,0 1.10938,0.21875 0.51562,0.21875 0.76562,0.57813 0.26563,0.34375 0.35938,0.84375 0.0625,0.3125 0.0625,1.10937 l 0,4.14063 -1.14063,0 0,-4.09375 q 0,-0.70313 -0.14062,-1.04688 -0.125,-0.34375 -0.46875,-0.54687 -0.32813,-0.21875 -0.78125,-0.21875 -0.73438,0 -1.26563,0.46875 -0.53125,0.45312 -0.53125,1.75 l 0,3.6875 -1.14062,0 z m 9.91247,-1.01563 0.15625,1 q -0.48437,0.10938 -0.85937,0.10938 -0.625,0 -0.96875,-0.20313 -0.34375,-0.20312 -0.48438,-0.51562 -0.14062,-0.32813 -0.14062,-1.34375 l 0,-3.89063 -0.82813,0 0,-0.875 0.82813,0 0,-1.671871 1.14062,-0.6875 0,2.359371 1.15625,0 0,0.875 -1.15625,0 0,3.95313 q 0,0.48437 0.0625,0.625 0.0625,0.14062 0.1875,0.21875 0.14063,0.0781 0.39063,0.0781 0.20312,0 0.51562,-0.0312 z m 5.59362,0.1875 q -0.625,0.53125 -1.21875,0.76563 -0.57813,0.21875 -1.25,0.21875 -1.125,0 -1.71875,-0.54688 -0.59375,-0.54687 -0.59375,-1.39062 0,-0.48438 0.21875,-0.89063 0.23437,-0.42187 0.59375,-0.67187 0.375,-0.25 0.82812,-0.375 0.32813,-0.0781 1.01563,-0.17188 1.375,-0.15625 2.03125,-0.39062 0.0156,-0.23438 0.0156,-0.29688 0,-0.70312 -0.32812,-0.98437 -0.4375,-0.39063 -1.29688,-0.39063 -0.8125,0 -1.20312,0.28125 -0.375,0.28125 -0.5625,1 l -1.10938,-0.14062 q 0.14063,-0.71875 0.48438,-1.15625 0.35937,-0.45313 1.01562,-0.6875 0.67188,-0.23438 1.53125,-0.23438 0.875,0 1.40625,0.20313 0.54688,0.20312 0.79688,0.51562 0.25,0.29688 0.35937,0.76563 0.0469,0.29687 0.0469,1.0625 l 0,1.51562 q 0,1.59375 0.0781,2.01563 0.0781,0.42187 0.28125,0.8125 l -1.1875,0 q -0.17187,-0.35938 -0.23437,-0.82813 z m -0.0937,-2.5625 q -0.625,0.26563 -1.85938,0.4375 -0.70312,0.10938 -1,0.23438 -0.29687,0.125 -0.45312,0.375 -0.15625,0.23437 -0.15625,0.53125 0,0.45312 0.34375,0.76562 0.34375,0.29688 1.01562,0.29688 0.65625,0 1.17188,-0.28125 0.51562,-0.29688 0.76562,-0.79688 0.17188,-0.375 0.17188,-1.14062 l 0,-0.42188 z m 5.6156,2.375 0.15625,1 q -0.48438,0.10938 -0.85938,0.10938 -0.625,0 -0.96875,-0.20313 -0.34375,-0.20312 -0.48437,-0.51562 -0.14063,-0.32813 -0.14063,-1.34375 l 0,-3.89063 -0.82812,0 0,-0.875 0.82812,0 0,-1.671871 1.14063,-0.6875 0,2.359371 1.15625,0 0,0.875 -1.15625,0 0,3.95313 q 0,0.48437 0.0625,0.625 0.0625,0.14062 0.1875,0.21875 0.14062,0.0781 0.39062,0.0781 0.20313,0 0.51563,-0.0312 z m 1.20298,-6.968751 0,-1.32812 1.14063,0 0,1.32812 -1.14063,0 z m 0,7.984381 0,-6.73438 1.14063,0 0,6.73438 -1.14063,0 z m 2.53922,-3.375 q 0,-1.875 1.03125,-2.76563 0.875,-0.75 2.125,-0.75 1.39062,0 2.26562,0.90625 0.89063,0.90625 0.89063,2.51563 0,1.29687 -0.39063,2.04687 -0.39062,0.75 -1.14062,1.17188 -0.75,0.40625 -1.625,0.40625 -1.42188,0 -2.29688,-0.90625 -0.85937,-0.90625 -0.85937,-2.625 z m 1.17187,0 q 0,1.29687 0.5625,1.95312 0.5625,0.64063 1.42188,0.64063 0.84375,0 1.40625,-0.64063 0.57812,-0.65625 0.57812,-1.98437 0,-1.25 -0.57812,-1.89063 -0.5625,-0.65625 -1.40625,-0.65625 -0.85938,0 -1.42188,0.64063 -0.5625,0.64062 -0.5625,1.9375 z m 6.66248,3.375 0,-6.73438 1.03125,0 0,0.95313 q 0.73438,-1.10938 2.14063,-1.10938 0.60937,0 1.10937,0.21875 0.51563,0.21875 0.76563,0.57813 0.26562,0.34375 0.35937,0.84375 0.0625,0.3125 0.0625,1.10937 l 0,4.14063 -1.14062,0 0,-4.09375 q 0,-0.70313 -0.14063,-1.04688 -0.125,-0.34375 -0.46875,-0.54687 -0.32812,-0.21875 -0.78125,-0.21875 -0.73437,0 -1.26562,0.46875 -0.53125,0.45312 -0.53125,1.75 l 0,3.6875 -1.14063,0 z" />
  <path
     style="fill:#000000;fill-rule:nonzero"
     inkscape:connector-curvature="0"
     id="path35"
     d="m 50.248794,94.49133 0,-9.3125 1.84375,0 2.20312,6.59375 q 0.3125,0.92187 0.45313,1.375 0.156246,-0.5 0.484366,-1.48438 l 2.23438,-6.48437 1.65625,0 0,9.3125 -1.1875,0 0,-7.78125 -2.70313,7.78125 -1.109366,0 -2.6875,-7.92188 0,7.92188 -1.1875,0 z m 15.602426,-2.17188 1.1875,0.14063 q -0.28125,1.04687 -1.04687,1.625 -0.75,0.5625 -1.92188,0.5625 -1.48437,0 -2.35937,-0.90625 -0.85938,-0.92188 -0.85938,-2.5625 0,-1.70313 0.875,-2.64063 0.89063,-0.9375 2.28125,-0.9375 1.35938,0 2.20313,0.92188 0.85937,0.92187 0.85937,2.57812 0,0.10938 0,0.3125 l -5.03125,0 q 0.0625,1.10938 0.625,1.70313 0.5625,0.59375 1.40625,0.59375 0.64063,0 1.07813,-0.32813 0.45312,-0.34375 0.70312,-1.0625 z m -3.75,-1.84375 3.76563,0 q -0.0781,-0.85937 -0.4375,-1.28125 -0.54688,-0.65625 -1.40625,-0.65625 -0.79688,0 -1.32813,0.53125 -0.53125,0.51563 -0.59375,1.40625 z m 9.0531,3 0.15625,1 q -0.48437,0.10938 -0.85937,0.10938 -0.625,0 -0.96875,-0.20313 -0.34375,-0.20312 -0.48438,-0.51562 -0.14062,-0.32813 -0.14062,-1.34375 l 0,-3.89063 -0.82813,0 0,-0.875 0.82813,0 0,-1.67187 1.14062,-0.6875 0,2.35937 1.15625,0 0,0.875 -1.15625,0 0,3.95313 q 0,0.48437 0.0625,0.625 0.0625,0.14062 0.1875,0.21875 0.14063,0.0781 0.39063,0.0781 0.20312,0 0.51562,-0.0312 z m 5.59362,0.1875 q -0.625,0.53125 -1.21875,0.76563 -0.57813,0.21875 -1.25,0.21875 -1.125,0 -1.71875,-0.54688 -0.59375,-0.54687 -0.59375,-1.39062 0,-0.48438 0.21875,-0.89063 0.23437,-0.42187 0.59375,-0.67187 0.375,-0.25 0.82812,-0.375 0.32813,-0.0781 1.01563,-0.17188 1.375,-0.15625 2.03125,-0.39062 0.0156,-0.23438 0.0156,-0.29688 0,-0.70312 -0.32812,-0.98437 -0.4375,-0.39063 -1.29688,-0.39063 -0.8125,0 -1.20312,0.28125 -0.375,0.28125 -0.5625,1 l -1.10938,-0.14062 q 0.14063,-0.71875 0.48438,-1.15625 0.35937,-0.45313 1.01562,-0.6875 0.67188,-0.23438 1.53125,-0.23438 0.875,0 1.40625,0.20313 0.54688,0.20312 0.79688,0.51562 0.25,0.29688 0.35937,0.76563 0.0469,0.29687 0.0469,1.0625 l 0,1.51562 q 0,1.59375 0.0781,2.01563 0.0781,0.42187 0.28125,0.8125 l -1.1875,0 Q 76.81042,94.13195 76.74792,93.6632 z m -0.0937,-2.5625 q -0.625,0.26563 -1.85938,0.4375 -0.70312,0.10938 -1,0.23438 -0.29687,0.125 -0.45312,0.375 -0.15625,0.23437 -0.15625,0.53125 0,0.45312 0.34375,0.76562 0.34375,0.29688 1.01562,0.29688 0.65625,0 1.17188,-0.28125 0.51562,-0.29688 0.76562,-0.79688 0.17188,-0.375 0.17188,-1.14062 l 0,-0.42188 z m 3.1156,3.39063 0,-6.73438 1.01562,0 0,0.9375 q 0.32813,-0.5 0.84375,-0.79687 0.53125,-0.29688 1.20313,-0.29688 0.75,0 1.21875,0.3125 0.48437,0.3125 0.6875,0.85938 0.79687,-1.17188 2.07812,-1.17188 1,0 1.53125,0.5625 0.54688,0.54688 0.54688,1.70313 l 0,4.625 -1.125,0 0,-4.25 q 0,-0.6875 -0.10938,-0.98438 -0.10937,-0.29687 -0.40625,-0.48437 -0.29687,-0.1875 -0.6875,-0.1875 -0.71875,0 -1.1875,0.48437 -0.46875,0.46875 -0.46875,1.5 l 0,3.92188 -1.14062,0 0,-4.375 q 0,-0.76563 -0.28125,-1.14063 -0.28125,-0.39062 -0.90625,-0.39062 -0.48438,0 -0.89063,0.26562 -0.40625,0.25 -0.59375,0.73438 -0.1875,0.48437 -0.1875,1.40625 l 0,3.5 -1.14062,0 z m 10.68055,-3.375 q 0,-1.875 1.03125,-2.76563 0.875,-0.75 2.125,-0.75 1.39063,0 2.26563,0.90625 0.89062,0.90625 0.89062,2.51563 0,1.29687 -0.39062,2.04687 -0.39063,0.75 -1.14063,1.17188 -0.75,0.40625 -1.625,0.40625 -1.42187,0 -2.29687,-0.90625 -0.85938,-0.90625 -0.85938,-2.625 z m 1.17188,0 q 0,1.29687 0.5625,1.95312 0.5625,0.64063 1.42187,0.64063 0.84375,0 1.40625,-0.64063 0.57813,-0.65625 0.57813,-1.98437 0,-1.25 -0.57813,-1.89063 -0.5625,-0.65625 -1.40625,-0.65625 -0.85937,0 -1.42187,0.64063 -0.5625,0.64062 -0.5625,1.9375 z m 11.03747,3.375 0,-0.84375 q -0.64062,1 -1.89062,1 -0.79688,0 -1.48438,-0.4375 -0.67187,-0.45313 -1.04687,-1.25 -0.375,-0.79688 -0.375,-1.82813 0,-1.01562 0.34375,-1.82812 0.34375,-0.82813 1.01562,-1.26563 0.67188,-0.4375 1.5,-0.4375 0.60938,0 1.07813,0.26563 0.48437,0.25 0.78125,0.65625 l 0,-3.34375 1.14062,0 0,9.3125 -1.0625,0 z m -3.60937,-3.35938 q 0,1.29688 0.53125,1.9375 0.54687,0.64063 1.29687,0.64063 0.75,0 1.26563,-0.60938 0.53125,-0.625 0.53125,-1.875 0,-1.39062 -0.53125,-2.03125 -0.53125,-0.65625 -1.3125,-0.65625 -0.76563,0 -1.28125,0.625 -0.5,0.625 -0.5,1.96875 z m 11.25623,1.1875 1.1875,0.14063 q -0.28125,1.04687 -1.04688,1.625 -0.75,0.5625 -1.92187,0.5625 -1.48438,0 -2.35938,-0.90625 -0.85937,-0.92188 -0.85937,-2.5625 0,-1.70313 0.875,-2.64063 0.89062,-0.9375 2.28125,-0.9375 1.35937,0 2.20312,0.92188 0.85938,0.92187 0.85938,2.57812 0,0.10938 0,0.3125 l -5.03125,0 q 0.0625,1.10938 0.625,1.70313 0.5625,0.59375 1.40625,0.59375 0.64062,0 1.07812,-0.32813 0.45313,-0.34375 0.70313,-1.0625 z m -3.75,-1.84375 3.76562,0 q -0.0781,-0.85937 -0.4375,-1.28125 -0.54687,-0.65625 -1.40625,-0.65625 -0.79687,0 -1.32812,0.53125 -0.53125,0.51563 -0.59375,1.40625 z m 6.52185,4.01563 0,-9.3125 1.14062,0 0,9.3125 -1.14062,0 z" />
  <path
     style="fill:#f6b26b;fill-rule:nonzero"
     inkscape:connector-curvature="0"
     id="path37"
     d="m 149.59216,59.880309 107.40158,0 0,43.622071 -107.40158,0 z" />
  <path
     style="stroke:#000000;stroke-width:2;stroke-linecap:butt;stroke-linejoin:round"
     inkscape:connector-curvature="0"
     id="path39"
     d="m 149.59216,59.880309 107.40158,0 0,43.622071 -107.40158,0 z" />
  <path
     style="fill:#000000;fill-rule:nonzero"
     inkscape:connector-curvature="0"
     id="path41"
     d="m 170.95959,78.49133 0,-9.312501 3.20313,0 q 1.09375,0 1.65625,0.14062 0.8125,0.1875 1.375,0.67188 0.73437,0.60937 1.09375,1.578121 0.375,0.96875 0.375,2.21875 0,1.0625 -0.25,1.89063 -0.25,0.8125 -0.64063,1.34375 -0.39062,0.53125 -0.85937,0.84375 -0.45313,0.3125 -1.10938,0.46875 -0.64062,0.15625 -1.48437,0.15625 l -3.35938,0 z m 1.23438,-1.09375 1.98437,0 q 0.92188,0 1.4375,-0.17188 0.53125,-0.17187 0.84375,-0.48437 0.4375,-0.4375 0.67188,-1.17188 0.25,-0.75 0.25,-1.79687 0,-1.46875 -0.48438,-2.25 -0.46875,-0.781251 -1.15625,-1.046881 -0.5,-0.1875 -1.59375,-0.1875 l -1.95312,0 0,7.109381 z m 12.85952,-1.07813 1.1875,0.14063 q -0.28125,1.04687 -1.04687,1.625 -0.75,0.5625 -1.92188,0.5625 -1.48437,0 -2.35937,-0.90625 -0.85938,-0.92188 -0.85938,-2.5625 0,-1.70313 0.875,-2.64063 0.89063,-0.9375 2.28125,-0.9375 1.35938,0 2.20313,0.92188 0.85937,0.92187 0.85937,2.57812 0,0.10938 0,0.3125 l -5.03125,0 q 0.0625,1.10938 0.625,1.70313 0.5625,0.59375 1.40625,0.59375 0.64063,0 1.07813,-0.32813 0.45312,-0.34375 0.70312,-1.0625 z m -3.75,-1.84375 3.76563,0 q -0.0781,-0.85937 -0.4375,-1.28125 -0.54688,-0.65625 -1.40625,-0.65625 -0.79688,0 -1.32813,0.53125 -0.53125,0.51563 -0.59375,1.40625 z m 6.09998,2 1.125,-0.17187 q 0.0937,0.67187 0.53125,1.04687 0.4375,0.35938 1.21875,0.35938 0.78125,0 1.15625,-0.3125 0.39062,-0.32813 0.39062,-0.76563 0,-0.39062 -0.34375,-0.60937 -0.23437,-0.15625 -1.17187,-0.39063 -1.25,-0.3125 -1.73438,-0.54687 -0.48437,-0.23438 -0.73437,-0.64063 -0.25,-0.40625 -0.25,-0.90625 0,-0.45312 0.20312,-0.82812 0.20313,-0.39063 0.5625,-0.64063 0.26563,-0.20312 0.71875,-0.32812 0.46875,-0.14063 1,-0.14063 0.78125,0 1.375,0.23438 0.60938,0.21875 0.89063,0.60937 0.29687,0.39063 0.40625,1.04688 l -1.125,0.15625 q -0.0781,-0.53125 -0.4375,-0.8125 -0.35938,-0.29688 -1.03125,-0.29688 -0.78125,0 -1.125,0.26563 -0.34375,0.25 -0.34375,0.60937 0,0.21875 0.14062,0.39063 0.14063,0.1875 0.4375,0.3125 0.17188,0.0625 1.01563,0.28125 1.21875,0.32812 1.6875,0.53125 0.48437,0.20312 0.75,0.60937 0.28125,0.39063 0.28125,0.96875 0,0.57813 -0.34375,1.07813 -0.32813,0.5 -0.95313,0.78125 -0.625,0.28125 -1.42187,0.28125 -1.3125,0 -2,-0.54688 -0.6875,-0.54687 -0.875,-1.625 z m 11.50781,-0.45312 1.125,0.14062 q -0.17187,1.17188 -0.9375,1.82813 -0.76562,0.65625 -1.85937,0.65625 -1.39063,0 -2.23438,-0.90625 -0.82812,-0.90625 -0.82812,-2.59375 0,-1.09375 0.35937,-1.90625 0.35938,-0.82813 1.09375,-1.23438 0.73438,-0.40625 1.60938,-0.40625 1.09375,0 1.79687,0.5625 0.70313,0.54688 0.89063,1.5625 l -1.10938,0.17188 q -0.15625,-0.67188 -0.5625,-1.01563 -0.39062,-0.34375 -0.96875,-0.34375 -0.85937,0 -1.40625,0.625 -0.53125,0.60938 -0.53125,1.95313 0,1.35937 0.51563,1.98437 0.51562,0.60938 1.35937,0.60938 0.67188,0 1.125,-0.40625 0.45313,-0.42188 0.5625,-1.28125 z m 2.25781,2.46875 0,-6.73438 1.03125,0 0,1.01563 q 0.39063,-0.71875 0.71875,-0.9375 0.34375,-0.23438 0.73438,-0.23438 0.57812,0 1.17187,0.35938 l -0.39062,1.0625 q -0.42188,-0.25 -0.82813,-0.25 -0.375,0 -0.6875,0.23437 -0.29687,0.21875 -0.42187,0.625 -0.1875,0.60938 -0.1875,1.32813 l 0,3.53125 -1.14063,0 z m 4.45398,-7.984381 0,-1.32812 1.14063,0 0,1.32812 -1.14063,0 z m 0,7.984381 0,-6.73438 1.14063,0 0,6.73438 -1.14063,0 z m 2.96109,2.57812 0,-9.3125 1.03125,0 0,0.875 q 0.375,-0.51562 0.82813,-0.76562 0.46875,-0.26563 1.14062,-0.26563 0.85938,0 1.51563,0.45313 0.65625,0.4375 0.98437,1.25 0.34375,0.79687 0.34375,1.76562 0,1.03125 -0.375,1.85938 -0.35937,0.82812 -1.07812,1.28125 -0.70313,0.4375 -1.48438,0.4375 -0.5625,0 -1.01562,-0.23438 -0.45313,-0.25 -0.75,-0.625 l 0,3.28125 -1.14063,0 z m 1.03125,-5.90625 q 0,1.29688 0.53125,1.92188 0.53125,0.625 1.26563,0.625 0.76562,0 1.3125,-0.64063 0.54687,-0.65625 0.54687,-2 0,-1.29687 -0.53125,-1.9375 -0.53125,-0.64062 -1.26562,-0.64062 -0.73438,0 -1.29688,0.6875 -0.5625,0.67187 -0.5625,1.98437 z m 8.88123,2.3125 0.15625,1 q -0.48438,0.10938 -0.85938,0.10938 -0.625,0 -0.96875,-0.20313 -0.34375,-0.20312 -0.48437,-0.51562 -0.14063,-0.32813 -0.14063,-1.34375 l 0,-3.89063 -0.82812,0 0,-0.875 0.82812,0 0,-1.671871 1.14063,-0.6875 0,2.359371 1.15625,0 0,0.875 -1.15625,0 0,3.95313 q 0,0.48437 0.0625,0.625 0.0625,0.14062 0.1875,0.21875 0.14062,0.0781 0.39062,0.0781 0.20313,0 0.51563,-0.0312 z m 1.203,-6.968751 0,-1.32812 1.14063,0 0,1.32812 -1.14063,0 z m 0,7.984381 0,-6.73438 1.14063,0 0,6.73438 -1.14063,0 z m 2.53922,-3.375 q 0,-1.875 1.03125,-2.76563 0.875,-0.75 2.125,-0.75 1.39062,0 2.26562,0.90625 0.89063,0.90625 0.89063,2.51563 0,1.29687 -0.39063,2.04687 -0.39062,0.75 -1.14062,1.17188 -0.75,0.40625 -1.625,0.40625 -1.42188,0 -2.29688,-0.90625 -0.85937,-0.90625 -0.85937,-2.625 z m 1.17187,0 q 0,1.29687 0.5625,1.95312 0.5625,0.64063 1.42188,0.64063 0.84375,0 1.40625,-0.64063 0.57812,-0.65625 0.57812,-1.98437 0,-1.25 -0.57812,-1.89063 -0.5625,-0.65625 -1.40625,-0.65625 -0.85938,0 -1.42188,0.64063 -0.5625,0.64062 -0.5625,1.9375 z m 6.66248,3.375 0,-6.73438 1.03125,0 0,0.95313 q 0.73437,-1.10938 2.14062,-1.10938 0.60938,0 1.10938,0.21875 0.51562,0.21875 0.76562,0.57813 0.26563,0.34375 0.35938,0.84375 0.0625,0.3125 0.0625,1.10937 l 0,4.14063 -1.14063,0 0,-4.09375 q 0,-0.70313 -0.14062,-1.04688 -0.125,-0.34375 -0.46875,-0.54687 -0.32813,-0.21875 -0.78125,-0.21875 -0.73438,0 -1.26563,0.46875 -0.53125,0.45312 -0.53125,1.75 l 0,3.6875 -1.14062,0 z" />
  <path
     style="fill:#000000;fill-rule:nonzero"
     inkscape:connector-curvature="0"
     id="path43"
     d="m 171.29606,94.49133 0,-9.3125 1.84375,0 2.20312,6.59375 q 0.3125,0.92187 0.45313,1.375 0.15625,-0.5 0.48437,-1.48438 l 2.23438,-6.48437 1.65625,0 0,9.3125 -1.1875,0 0,-7.78125 -2.70313,7.78125 -1.10937,0 -2.6875,-7.92188 0,7.92188 -1.1875,0 z m 15.60242,-2.17188 1.1875,0.14063 q -0.28125,1.04687 -1.04688,1.625 -0.75,0.5625 -1.92187,0.5625 -1.48438,0 -2.35938,-0.90625 -0.85937,-0.92188 -0.85937,-2.5625 0,-1.70313 0.875,-2.64063 0.89062,-0.9375 2.28125,-0.9375 1.35937,0 2.20312,0.92188 0.85938,0.92187 0.85938,2.57812 0,0.10938 0,0.3125 l -5.03125,0 q 0.0625,1.10938 0.625,1.70313 0.5625,0.59375 1.40625,0.59375 0.64062,0 1.07812,-0.32813 0.45313,-0.34375 0.70313,-1.0625 z m -3.75,-1.84375 3.76562,0 q -0.0781,-0.85937 -0.4375,-1.28125 -0.54687,-0.65625 -1.40625,-0.65625 -0.79687,0 -1.32812,0.53125 -0.53125,0.51563 -0.59375,1.40625 z m 9.0531,3 0.15625,1 q -0.48438,0.10938 -0.85938,0.10938 -0.625,0 -0.96875,-0.20313 -0.34375,-0.20312 -0.48437,-0.51562 -0.14063,-0.32813 -0.14063,-1.34375 l 0,-3.89063 -0.82812,0 0,-0.875 0.82812,0 0,-1.67187 1.14063,-0.6875 0,2.35937 1.15625,0 0,0.875 -1.15625,0 0,3.95313 q 0,0.48437 0.0625,0.625 0.0625,0.14062 0.1875,0.21875 0.14062,0.0781 0.39062,0.0781 0.20313,0 0.51563,-0.0312 z m 5.59363,0.1875 q -0.625,0.53125 -1.21875,0.76563 -0.57813,0.21875 -1.25,0.21875 -1.125,0 -1.71875,-0.54688 -0.59375,-0.54687 -0.59375,-1.39062 0,-0.48438 0.21875,-0.89063 0.23437,-0.42187 0.59375,-0.67187 0.375,-0.25 0.82812,-0.375 0.32813,-0.0781 1.01563,-0.17188 1.375,-0.15625 2.03125,-0.39062 0.0156,-0.23438 0.0156,-0.29688 0,-0.70312 -0.32812,-0.98437 -0.4375,-0.39063 -1.29688,-0.39063 -0.8125,0 -1.20312,0.28125 -0.375,0.28125 -0.5625,1 l -1.10938,-0.14062 q 0.14063,-0.71875 0.48438,-1.15625 0.35937,-0.45313 1.01562,-0.6875 0.67188,-0.23438 1.53125,-0.23438 0.875,0 1.40625,0.20313 0.54688,0.20312 0.79688,0.51562 0.25,0.29688 0.35937,0.76563 0.0469,0.29687 0.0469,1.0625 l 0,1.51562 q 0,1.59375 0.0781,2.01563 0.0781,0.42187 0.28125,0.8125 l -1.1875,0 q -0.17187,-0.35938 -0.23437,-0.82813 z m -0.0937,-2.5625 q -0.625,0.26563 -1.85938,0.4375 -0.70312,0.10938 -1,0.23438 -0.29687,0.125 -0.45312,0.375 -0.15625,0.23437 -0.15625,0.53125 0,0.45312 0.34375,0.76562 0.34375,0.29688 1.01562,0.29688 0.65625,0 1.17188,-0.28125 0.51562,-0.29688 0.76562,-0.79688 0.17188,-0.375 0.17188,-1.14062 l 0,-0.42188 z m 3.1156,3.39063 0,-6.73438 1.01562,0 0,0.9375 q 0.32813,-0.5 0.84375,-0.79687 0.53125,-0.29688 1.20313,-0.29688 0.75,0 1.21875,0.3125 0.48437,0.3125 0.6875,0.85938 0.79687,-1.17188 2.07812,-1.17188 1,0 1.53125,0.5625 0.54688,0.54688 0.54688,1.70313 l 0,4.625 -1.125,0 0,-4.25 q 0,-0.6875 -0.10938,-0.98438 -0.10937,-0.29687 -0.40625,-0.48437 -0.29687,-0.1875 -0.6875,-0.1875 -0.71875,0 -1.1875,0.48437 -0.46875,0.46875 -0.46875,1.5 l 0,3.92188 -1.14062,0 0,-4.375 q 0,-0.76563 -0.28125,-1.14063 -0.28125,-0.39062 -0.90625,-0.39062 -0.48438,0 -0.89063,0.26562 -0.40625,0.25 -0.59375,0.73438 -0.1875,0.48437 -0.1875,1.40625 l 0,3.5 -1.14062,0 z m 10.68054,-3.375 q 0,-1.875 1.03125,-2.76563 0.875,-0.75 2.125,-0.75 1.39062,0 2.26562,0.90625 0.89063,0.90625 0.89063,2.51563 0,1.29687 -0.39063,2.04687 -0.39062,0.75 -1.14062,1.17188 -0.75,0.40625 -1.625,0.40625 -1.42188,0 -2.29688,-0.90625 -0.85937,-0.90625 -0.85937,-2.625 z m 1.17187,0 q 0,1.29687 0.5625,1.95312 0.5625,0.64063 1.42188,0.64063 0.84375,0 1.40625,-0.64063 0.57812,-0.65625 0.57812,-1.98437 0,-1.25 -0.57812,-1.89063 -0.5625,-0.65625 -1.40625,-0.65625 -0.85938,0 -1.42188,0.64063 -0.5625,0.64062 -0.5625,1.9375 z m 11.03748,3.375 0,-0.84375 q -0.64063,1 -1.89063,1 -0.79687,0 -1.48437,-0.4375 -0.67188,-0.45313 -1.04688,-1.25 -0.375,-0.79688 -0.375,-1.82813 0,-1.01562 0.34375,-1.82812 0.34375,-0.82813 1.01563,-1.26563 0.67187,-0.4375 1.5,-0.4375 0.60937,0 1.07812,0.26563 0.48438,0.25 0.78125,0.65625 l 0,-3.34375 1.14063,0 0,9.3125 -1.0625,0 z m -3.60938,-3.35938 q 0,1.29688 0.53125,1.9375 0.54688,0.64063 1.29688,0.64063 0.75,0 1.26562,-0.60938 0.53125,-0.625 0.53125,-1.875 0,-1.39062 -0.53125,-2.03125 -0.53125,-0.65625 -1.3125,-0.65625 -0.76562,0 -1.28125,0.625 -0.5,0.625 -0.5,1.96875 z m 11.25623,1.1875 1.1875,0.14063 q -0.28125,1.04687 -1.04687,1.625 -0.75,0.5625 -1.92188,0.5625 -1.48437,0 -2.35937,-0.90625 -0.85938,-0.92188 -0.85938,-2.5625 0,-1.70313 0.875,-2.64063 0.89063,-0.9375 2.28125,-0.9375 1.35938,0 2.20313,0.92188 0.85937,0.92187 0.85937,2.57812 0,0.10938 0,0.3125 l -5.03125,0 q 0.0625,1.10938 0.625,1.70313 0.5625,0.59375 1.40625,0.59375 0.64063,0 1.07813,-0.32813 0.45312,-0.34375 0.70312,-1.0625 z m -3.75,-1.84375 3.76563,0 q -0.0781,-0.85937 -0.4375,-1.28125 -0.54688,-0.65625 -1.40625,-0.65625 -0.79688,0 -1.32813,0.53125 -0.53125,0.51563 -0.59375,1.40625 z m 6.52185,4.01563 0,-9.3125 1.14063,0 0,9.3125 -1.14063,0 z" />
  <path
     style="fill:#000000;fill-opacity:0;fill-rule:nonzero"
     inkscape:connector-curvature="0"
     id="path45"
     d="m 309.43469,81.69133 -52.44095,0" />
  <path
     style="stroke:#000000;stroke-width:2;stroke-linecap:butt;stroke-linejoin:round"
     inkscape:connector-curvature="0"
     id="path47"
     d="m 309.43469,81.69133 -40.44095,0" />
  <path
     style="fill:#000000;fill-rule:evenodd;stroke:#000000;stroke-width:2;stroke-linecap:butt"
     inkscape:connector-curvature="0"
     id="path49"
     d="m 268.99374,78.38788 -9.0762,3.30347 9.0762,3.30346 z" />
  <path
     style="fill:#cfe2f3;fill-rule:nonzero"
     inkscape:connector-curvature="0"
     id="path51"
     d="m 0.993734,157.08523 0,0 c 0,-6.51733 5.28338,-11.80072 11.80076,-11.80072 l 555.737056,0 c 3.12976,0 6.13135,1.24329 8.34442,3.45636 2.21307,2.21307 3.45636,5.21466 3.45636,8.34436 l 0,47.2017 c 0,6.5174 -5.28339,11.8007 -11.80078,11.8007 l -555.737056,0 c -6.51738,0 -11.80076,-5.2833 -11.80076,-11.8007 z" />
  <path
     style="stroke:#000000;stroke-width:2;stroke-linecap:butt;stroke-linejoin:round"
     inkscape:connector-curvature="0"
     id="path53"
     d="m 0.993734,157.08523 0,0 c 0,-6.51733 5.28338,-11.80072 11.80076,-11.80072 l 555.737056,0 c 3.12976,0 6.13135,1.24329 8.34442,3.45636 2.21307,2.21307 3.45636,5.21466 3.45636,8.34436 l 0,47.2017 c 0,6.5174 -5.28339,11.8007 -11.80078,11.8007 l -555.737056,0 c -6.51738,0 -11.80076,-5.2833 -11.80076,-11.8007 z" />
  <path
     style="fill:#000000;fill-rule:nonzero"
     inkscape:connector-curvature="0"
     id="path55"
     d="m 14.950064,187.60613 0,-13.5938 9.84375,0 0,1.5938 -8.04688,0 0,4.1718 7.53125,0 0,1.5938 -7.53125,0 0,4.625 8.35938,0 0,1.6094 -10.15625,0 z m 12.34982,0 0,-13.5938 2.71875,0 3.21875,9.625 q 0.4375,1.3438 0.64063,2.0156 0.23437,-0.75 0.73437,-2.1875 l 3.25,-9.4531 2.42188,0 0,13.5938 -1.73438,0 0,-11.3907 -3.95312,11.3907 -1.625,0 -3.9375,-11.5782 0,11.5782 -1.73438,0 z m 15.69705,0 0,-13.5938 9.17188,0 0,1.5938 -7.375,0 0,4.2187 6.375,0 0,1.6094 -6.375,0 0,6.1719 -1.79688,0 z" />
</svg>
